Coordinates
version=1
nRows=14
nColumns=40
inDegrees=yes

Units are S.I. units (second, meters, Newtons, ...)
If the header above contains a line with 'inDegrees', this indicates whether rotational values are in degrees (yes) or radians (no).

endheader
time	pelvis_tilt	pelvis_list	pelvis_rotation	pelvis_tx	pelvis_ty	pelvis_tz	hip_flexion_r	hip_adduction_r	hip_rotation_r	knee_angle_r	knee_angle_r_beta	ankle_angle_r	subtalar_angle_r	mtp_angle_r	hip_flexion_l	hip_adduction_l	hip_rotation_l	knee_angle_l	knee_angle_l_beta	ankle_angle_l	subtalar_angle_l	mtp_angle_l	lumbar_extension	lumbar_bending	lumbar_rotation	arm_flex_r	arm_add_r	arm_rot_r	elbow_flex_r	pro_sup_r	wrist_flex_r	wrist_dev_r	arm_flex_l	arm_add_l	arm_rot_l	elbow_flex_l	pro_sup_l	wrist_flex_l	wrist_dev_l
     10.37500000	     37.69288756	    -15.46668905	    174.97842124	      0.31011288	      0.91263355	     -0.57369955	     73.70365222	    -11.55933326	     14.49555573	     38.90239580	      0.67897489	      7.58865289	      0.00000000	      0.00000000	     61.02409354	     -0.95082968	    -16.65263698	     29.04608085	      0.50694975	      6.59155209	      0.00000000	      0.00000000	     32.09806816	    -13.54869653	     11.13736105	      5.60198009	     -3.79302288	      6.61785977	     21.01812676	     84.67830768	      0.00000000	      0.00000000	      9.80381946	    -20.62378573	     42.61404716	     29.55434711	     88.59617520	      0.00000000	      0.00000000
     10.38000000	     37.20725938	    -16.31757176	    174.53309444	      0.30916238	      0.91324990	     -0.57424215	     73.61764997	    -11.64617622	     15.35692789	     39.05565953	      0.68164985	      7.61033716	      0.00000000	      0.00000000	     60.25806371	     -0.60808276	    -17.64599986	     28.62749850	      0.49964411	      6.70170313	      0.00000000	      0.00000000	     31.84101285	    -14.25322157	     11.90964512	      5.71113007	     -3.53295598	      6.09980080	     20.80544795	     84.84909910	      0.00000000	      0.00000000	      9.98855723	    -20.80007990	     43.06888649	     29.55534857	     88.58738608	      0.00000000	      0.00000000
     10.38500000	     37.59572672	    -15.25873640	    175.00154682	      0.30996829	      0.91258992	     -0.57375005	     73.57502967	    -11.50980393	     14.33024382	     39.00106247	      0.68069695	      7.65171624	      0.00000000	      0.00000000	     61.04168428	     -1.07779885	    -16.48894743	     29.29466058	      0.51128828	      6.68328863	      0.00000000	      0.00000000	     31.85353290	    -13.40531627	     11.02453889	      5.51902366	     -3.93850047	      6.70025108	     21.22694505	     84.73540512	      0.00000000	      0.00000000	     10.17010283	    -20.65220141	     43.72381259	     29.43122309	     88.57229744	      0.00000000	      0.00000000
     10.39000000	     37.47060006	    -15.31047598	    174.90436415	      0.30972754	      0.91263678	     -0.57393533	     73.49379023	    -11.46547337	     14.40398515	     39.05319871	      0.68160690	      7.70107352	      0.00000000	      0.00000000	     60.92259594	     -1.11568534	    -16.63081475	     29.35576009	      0.51235467	      6.77077111	      0.00000000	      0.00000000	     31.71021929	    -13.43848856	     11.14193817	      5.57993729	     -3.84963776	      6.29070036	     21.09381934	     84.89900298	      0.00000000	      0.00000000	     10.32042391	    -20.67881678	     44.16562863	     29.37821406	     88.56647168	      0.00000000	      0.00000000
     10.39500000	     37.66766317	    -14.93217662	    175.10817198	      0.30997864	      0.91218399	     -0.57368314	     73.56826155	    -11.44014653	     14.00677288	     39.08376894	      0.68214045	      7.72054281	      0.00000000	      0.00000000	     61.29127923	     -1.26898696	    -16.24780578	     29.64470809	      0.51739776	      6.77521067	      0.00000000	      0.00000000	     31.76544972	    -13.14224893	     10.79303856	      5.46396114	     -4.06507656	      6.70946264	     21.33315050	     84.81093313	      0.00000000	      0.00000000	     10.34046798	    -20.61962600	     44.30365094	     29.35957256	     88.56599945	      0.00000000	      0.00000000
     10.40000000	     37.71898386	    -14.69968512	    175.15656747	      0.31012667	      0.91191306	     -0.57361522	     73.55332216	    -11.36730447	     13.79474618	     39.10830688	      0.68256872	      7.75596514	      0.00000000	      0.00000000	     61.46521129	     -1.42359800	    -16.08679258	     29.87296719	      0.52138163	      6.83637838	      0.00000000	      0.00000000	     31.71542118	    -12.93423501	     10.61079294	      5.45948109	     -4.16364319	      6.88215649	     21.42176623	     84.74259446	      0.00000000	      0.00000000	     10.28367914	    -20.49756875	     43.99150680	     29.31620435	     88.56856996	      0.00000000	      0.00000000
     10.40500000	     37.59594353	    -15.17237701	    174.87092735	      0.30972737	      0.91188262	     -0.57404378	     73.65161349	    -11.30207134	     14.35210626	     39.19120158	      0.68401551	      7.75429906	      0.00000000	      0.00000000	     61.22639016	     -1.35183951	    -16.72895578	     29.75235486	      0.51927655	      6.95336487	      0.00000000	      0.00000000	     31.73538019	    -13.27009374	     11.05067895	      5.57198853	     -3.96399849	      6.49201725	     21.19804668	     84.91903757	      0.00000000	      0.00000000	     10.09250700	    -20.53195454	     43.34572172	     29.43904152	     88.58261320	      0.00000000	      0.00000000
     10.41000000	     37.87356446	    -14.64812425	    175.16428837	      0.31013367	      0.91130849	     -0.57360765	     73.73242281	    -11.28184703	     13.79722619	     39.19171098	      0.68402440	      7.80533321	      0.00000000	      0.00000000	     61.72510461	     -1.53830277	    -16.16549905	     30.09859991	      0.52531967	      6.94359389	      0.00000000	      0.00000000	     31.84097500	    -12.85995009	     10.57951327	      5.42349595	     -4.16954084	      6.73540058	     21.48184476	     84.78876311	      0.00000000	      0.00000000	     10.03753706	    -20.40687069	     43.18468601	     29.44594460	     88.57723878	      0.00000000	      0.00000000
     10.41500000	     37.83372224	    -14.83813924	    175.09772178	      0.30995187	      0.91117800	     -0.57366741	     73.80239409	    -11.30775665	     13.95878342	     39.27009316	      0.68539242	      7.83382668	      0.00000000	      0.00000000	     61.65828482	     -1.46948040	    -16.40570049	     30.08054899	      0.52500462	      7.00105381	      0.00000000	      0.00000000	     31.84209793	    -13.02062021	     10.70512398	      5.49907614	     -4.04829600	      6.42100554	     21.33826324	     84.83538390	      0.00000000	      0.00000000	      9.92253914	    -20.44432571	     42.87691724	     29.57748235	     88.58727118	      0.00000000	      0.00000000
     10.42000000	     37.74419780	    -15.15122572	    174.89249241	      0.30971057	      0.91113830	     -0.57405350	     73.84749527	    -11.24951089	     14.32651528	     39.30767265	      0.68604831	      7.86368229	      0.00000000	      0.00000000	     61.50521576	     -1.44707774	    -16.83944894	     30.03181462	      0.52415405	      7.08182110	      0.00000000	      0.00000000	     31.85193009	    -13.24650173	     10.99581715	      5.59569039	     -3.84749599	      6.02846975	     21.14561508	     84.91112293	      0.00000000	      0.00000000	      9.76084217	    -20.46364835	     42.25538941	     29.68032794	     88.59930459	      0.00000000	      0.00000000
     10.42500000	     38.08794175	    -14.64168209	    175.18751485	      0.31010482	      0.91052457	     -0.57382426	     73.98353986	    -11.21070761	     13.79210621	     39.28963741	      0.68573353	      7.91596751	      0.00000000	      0.00000000	     62.05820829	     -1.63895079	    -16.21391230	     30.35615049	      0.52981477	      7.05126347	      0.00000000	      0.00000000	     32.05652197	    -12.85176689	     10.50790028	      5.47518422	     -3.98492194	      6.21628248	     21.34878809	     84.76269921	      0.00000000	      0.00000000	      9.64994344	    -20.39557439	     42.07256622	     29.71439896	     88.59750223	      0.00000000	      0.00000000
     10.43000000	     38.07340587	    -14.87249070	    175.00596836	      0.30983364	      0.91041397	     -0.57416920	     74.06585184	    -11.12713414	     14.04215549	     39.31903840	      0.68624668	      7.90372592	      0.00000000	      0.00000000	     62.01063868	     -1.67061725	    -16.52382387	     30.36939236	      0.53004589	      7.10773906	      0.00000000	      0.00000000	     32.14731381	    -12.98316792	     10.76444011	      5.47045501	     -3.84490987	      5.90096392	     21.28349247	     84.74705457	      0.00000000	      0.00000000	      9.62729704	    -20.48059528	     42.17976038	     29.75981713	     88.59536323	      0.00000000	      0.00000000
     10.43500000	     38.17496632	    -14.67748418	    175.03862282	      0.30990999	      0.91019931	     -0.57421790	     74.07540460	    -11.03998001	     13.88598582	     39.28964628	      0.68573369	      7.93275113	      0.00000000	      0.00000000	     62.22072588	     -1.82355651	    -16.32350231	     30.57211691	      0.53358410	      7.11668452	      0.00000000	      0.00000000	     32.20182038	    -12.78924220	     10.56871639	      5.42005989	     -3.91461633	      6.07385898	     21.40613375	     84.67393864	      0.00000000	      0.00000000	      9.54659869	    -20.41579311	     41.95441558	     29.73674503	     88.60137039	      0.00000000	      0.00000000
     10.44000000	     38.20809223	    -14.63728856	    174.99328777	      0.30972839	      0.91007525	     -0.57441638	     74.08116835	    -10.96888409	     13.84890014	     39.28419888	      0.68563861	      7.95943350	      0.00000000	      0.00000000	     62.30017652	     -1.91948875	    -16.28148083	     30.69176428	      0.53567234	      7.14848658	      0.00000000	      0.00000000	     32.25158205	    -12.71009860	     10.56162766	      5.39711794	     -3.83599056	      5.76797016	     21.38139981	     84.65139956	      0.00000000	      0.00000000	      9.59151105	    -20.45064337	     42.26863732	     29.70504024	     88.60151016	      0.00000000	      0.00000000
